# xmcd CD database file
#
# Track frame offsets:
#	150
#	13636
#	34537
#	48845
#
# Disc length: 837 seconds
#
# Revision: 2
# Processed by: cddbd v1.5.2PL0 Copyright (c) Steve Scherf et al.
# Submitted via: CDex 1.51
#
DISCID=22034304
DTITLE=LBS - Olympic Special
DYEAR=1900
DGENRE=Country
TTITLE0=200 Flags - Brian Letton
TTITLE1=Wind Beneath My Wings - Shaza Leigh
TTITLE2=Strong Enough To Bend - Gail Smith
TTITLE3=A Bushman Can't Survive - Lindsay Butler and Barry Thornton
EXTD=
EXTT0=
EXTT1=
EXTT2=
EXTT3=
PLAYORDER=
